<svg width="25" height="29" viewBox="0 0 25 29" fill="none" xmlns="http://www.w3.org/2000/svg">
<path d="M12.6413 15.6238C12.6703 15.6238 12.6993 15.6238 12.7341 15.6238C12.7457 15.6238 12.7573 15.6238 12.7688 15.6238C12.7862 15.6238 12.8094 15.6238 12.8268 15.6238C14.5257 15.5948 15.8999 14.9976 16.9146 13.8553C19.147 11.3389 18.7759 7.02492 18.7353 6.61324C18.5903 3.52275 17.1292 2.04418 15.9231 1.35418C15.0244 0.838133 13.9749 0.559814 12.8036 0.536621H12.7631C12.7573 0.536621 12.7457 0.536621 12.7399 0.536621H12.7051C12.0615 0.536621 10.7974 0.640991 9.58558 1.33099C8.36794 2.02099 6.88357 3.49955 6.73861 6.61324C6.69803 7.02492 6.32693 11.3389 8.55928 13.8553C9.56819 14.9976 10.9424 15.5948 12.6413 15.6238ZM8.28676 6.7582C8.28676 6.7408 8.29256 6.72341 8.29256 6.71181C8.4839 2.55443 11.4352 2.10796 12.6993 2.10796H12.7225C12.7341 2.10796 12.7515 2.10796 12.7688 2.10796C14.3344 2.14275 16.9958 2.78056 17.1756 6.71181C17.1756 6.72921 17.1756 6.7466 17.1814 6.7582C17.1872 6.79879 17.593 10.7416 15.7492 12.8174C15.0186 13.6408 14.0445 14.0467 12.7631 14.0583C12.7515 14.0583 12.7457 14.0583 12.7341 14.0583C12.7225 14.0583 12.7167 14.0583 12.7051 14.0583C11.4294 14.0467 10.4495 13.6408 9.72474 12.8174C7.88668 10.7532 8.28096 6.79299 8.28676 6.7582Z" fill="black"/>
<path d="M24.6497 22.7789C24.6497 22.7731 24.6497 22.7673 24.6497 22.7615C24.6497 22.7151 24.6439 22.6688 24.6439 22.6166C24.6091 21.4685 24.5337 18.7839 22.0172 17.9257C21.9999 17.9199 21.9767 17.9141 21.9593 17.9083C19.3442 17.2415 17.1699 15.734 17.1467 15.7166C16.793 15.4673 16.3059 15.5542 16.0566 15.9079C15.8073 16.2616 15.8942 16.7487 16.2479 16.998C16.3465 17.0676 18.6542 18.6737 21.5418 19.4159C22.8928 19.8972 23.0435 21.3409 23.0841 22.663C23.0841 22.7151 23.0841 22.7615 23.0899 22.8079C23.0957 23.3298 23.0609 24.1357 22.9682 24.5996C22.0288 25.133 18.3469 26.9769 12.7458 26.9769C7.1678 26.9769 3.46268 25.1272 2.51756 24.5938C2.42479 24.1299 2.3842 23.324 2.39579 22.8021C2.39579 22.7557 2.40159 22.7093 2.40159 22.6572C2.44218 21.3351 2.59294 19.8914 3.94394 19.4101C6.8315 18.6679 9.13922 17.056 9.23779 16.9922C9.59149 16.7429 9.67846 16.2558 9.42913 15.9021C9.17981 15.5484 8.69275 15.4615 8.33905 15.7108C8.31586 15.7282 6.15309 17.2357 3.52646 17.9025C3.50327 17.9083 3.48588 17.9141 3.46848 17.9199C0.952017 18.7839 0.876639 21.4685 0.841849 22.6108C0.841849 22.663 0.841849 22.7093 0.836051 22.7557C0.836051 22.7615 0.836051 22.7673 0.836051 22.7731C0.830252 23.0746 0.824454 24.6228 1.13176 25.3998C1.18975 25.5505 1.29412 25.6781 1.43328 25.765C1.60723 25.881 5.7762 28.5366 12.7516 28.5366C19.7269 28.5366 23.8959 25.8752 24.0698 25.765C24.2032 25.6781 24.3134 25.5505 24.3714 25.3998C24.6613 24.6286 24.6555 23.0804 24.6497 22.7789Z" fill="black"/>
</svg>
