<svg width="23" height="29" viewBox="0 0 23 29" fill="none" xmlns="http://www.w3.org/2000/svg">
<path d="M22.5903 24.7403L20.987 6.68631C20.9527 6.2855 20.6148 5.98202 20.2197 5.98202H16.9216C16.8758 2.97016 14.4136 0.536621 11.3903 0.536621C8.36698 0.536621 5.90482 2.97016 5.85901 5.98202H2.56085C2.16003 5.98202 1.82792 6.2855 1.79357 6.68631L0.190296 24.7403C0.190296 24.7632 0.18457 24.7861 0.18457 24.809C0.18457 26.8646 2.06841 28.5366 4.38743 28.5366H18.3932C20.7122 28.5366 22.596 26.8646 22.596 24.809C22.596 24.7861 22.596 24.7632 22.5903 24.7403ZM11.3903 2.08263C13.5604 2.08263 15.3298 3.82333 15.3756 5.98202H7.40502C7.45083 3.82333 9.22015 2.08263 11.3903 2.08263ZM18.3932 26.9906H4.38743C2.93304 26.9906 1.75349 26.0286 1.73058 24.8434L3.26514 7.53376H5.85328V9.88141C5.85328 10.3109 6.19684 10.6544 6.62629 10.6544C7.05574 10.6544 7.39929 10.3109 7.39929 9.88141V7.53376H15.3756V9.88141C15.3756 10.3109 15.7191 10.6544 16.1486 10.6544C16.578 10.6544 16.9216 10.3109 16.9216 9.88141V7.53376H19.5097L21.05 24.8434C21.0271 26.0286 19.8418 26.9906 18.3932 26.9906Z" fill="black"/>
</svg>
