<svg width="27" height="26" viewBox="0 0 27 26" fill="none" xmlns="http://www.w3.org/2000/svg">
<path fill-rule="evenodd" clip-rule="evenodd" d="M26.1016 7.19132H23.9834L22.8721 22.6925C22.8682 24.1176 21.7139 25.2718 20.2891 25.276H7.37109C5.94629 25.2718 4.79199 24.1176 4.78711 22.6925L3.67676 7.19132H2.2041C1.69141 7.20827 1.20605 6.96529 0.912109 6.54543V5.25366C1.20605 4.83382 1.69141 4.59082 2.2041 4.60779H7.37109V3.31601C7.37109 1.88918 8.52734 0.732484 9.9541 0.732484H17.7051C18.3906 0.730073 19.0498 1.0015 19.5342 1.48651C20.0195 1.97154 20.291 2.63008 20.2891 3.31601V4.60779H26.1016C26.458 4.60779 26.7471 4.89696 26.7471 5.25366V6.54543C26.7471 6.90215 26.458 7.19132 26.1016 7.19132ZM16.4141 3.31603H11.2471C10.5332 3.31603 9.95508 3.89436 9.95508 4.60779H17.7061C17.7061 3.89436 17.127 3.31603 16.4141 3.31603ZM6.0791 7.19132H21.5801L20.2881 21.4007C20.2881 22.1142 19.71 22.6925 18.9971 22.6925H8.66309C7.94922 22.6925 7.37109 22.1142 7.37109 21.4007L6.0791 7.19132ZM17.0596 18.8172H15.7676C15.4111 18.8172 15.1221 18.528 15.1221 18.1713V11.7125C15.1221 11.3558 15.4111 11.0666 15.7676 11.0666H17.0596C17.416 11.0666 17.7061 11.3558 17.7061 11.7125V18.1713C17.7061 18.528 17.416 18.8172 17.0596 18.8172ZM9.95508 18.1713C9.95508 18.528 10.2441 18.8172 10.6006 18.8172H11.8926C12.249 18.8172 12.5391 18.528 12.5391 18.1713V11.7125C12.5391 11.3558 12.249 11.0666 11.8926 11.0666H10.6006C10.2441 11.0666 9.95508 11.3558 9.95508 11.7125V18.1713Z" fill="#8D8D8D"/>
</svg>
