<svg width="25" height="29" viewBox="0 0 25 29" fill="none" xmlns="http://www.w3.org/2000/svg"><path d="M12.641 15.624h.186c1.699-.03 3.073-.626 4.088-1.769 2.232-2.516 1.86-6.83 1.82-7.242-.145-3.09-1.606-4.569-2.812-5.259-.899-.516-1.948-.794-3.12-.817h-.098c-.643 0-1.908.104-3.12.794-1.217.69-2.701 2.169-2.846 5.282-.041.412-.412 4.726 1.82 7.242 1.01 1.143 2.383 1.74 4.082 1.769zM8.287 6.758c0-.017.006-.035.006-.046.19-4.158 3.142-4.604 4.406-4.604h.07c1.565.035 4.227.673 4.407 4.604 0 .017 0 .035.005.046.006.04.412 3.984-1.432 6.06-.73.823-1.705 1.229-2.986 1.24h-.058c-1.276-.011-2.255-.417-2.98-1.24-1.838-2.065-1.444-6.025-1.438-6.06z" fill="#000"/><path d="M24.65 22.779v-.017c0-.047-.006-.093-.006-.145-.035-1.149-.11-3.833-2.627-4.691l-.058-.018c-2.615-.667-4.79-2.174-4.812-2.191a.782.782 0 1 0-.9 1.281c.1.07 2.407 1.676 5.295 2.418 1.35.481 1.502 1.925 1.542 3.247 0 .052 0 .099.006.145.006.522-.03 1.328-.122 1.792-.94.533-4.621 2.377-10.222 2.377-5.578 0-9.283-1.85-10.228-2.383-.093-.464-.134-1.27-.122-1.792 0-.046.006-.093.006-.145.04-1.322.19-2.766 1.542-3.247 2.888-.742 5.195-2.354 5.294-2.418a.782.782 0 1 0-.899-1.281c-.023.017-2.186 1.525-4.813 2.191-.023.006-.04.012-.058.018-2.516.864-2.591 3.548-2.626 4.69 0 .053 0 .1-.006.146v.017c-.006.302-.012 1.85.296 2.627.058.15.162.278.301.365.174.116 4.343 2.772 11.319 2.772 6.975 0 11.144-2.662 11.318-2.772a.776.776 0 0 0 .301-.365c.29-.771.285-2.32.279-2.621z" fill="#000"/></svg>