<svg width="23" height="29" viewBox="0 0 23 29" fill="none" xmlns="http://www.w3.org/2000/svg"><path d="M22.59 24.74L20.987 6.686a.772.772 0 0 0-.767-.704h-3.298A5.536 5.536 0 0 0 11.39.537a5.536 5.536 0 0 0-5.53 5.445H2.561a.767.767 0 0 0-.767.704L.19 24.74c0 .023-.005.046-.005.069 0 2.056 1.883 3.728 4.202 3.728h14.006c2.32 0 4.203-1.672 4.203-3.728 0-.023 0-.046-.006-.069zM11.39 2.083a3.99 3.99 0 0 1 3.986 3.899H7.405a3.99 3.99 0 0 1 3.985-3.9zm7.003 24.908H4.387c-1.454 0-2.634-.962-2.656-2.148l1.534-17.31h2.588v2.348c0 .43.344.773.773.773a.77.77 0 0 0 .773-.773V7.534h7.977V9.88c0 .43.343.773.773.773a.77.77 0 0 0 .773-.773V7.534h2.588l1.54 17.31c-.023 1.185-1.208 2.147-2.657 2.147z" fill="#000"/></svg>