<svg width="28" height="29" viewBox="0 0 28 29" fill="none" xmlns="http://www.w3.org/2000/svg"><path d="M27.758 26.62l-6.804-6.804a11.89 11.89 0 0 0 2.93-7.829C23.884 5.4 18.526.05 11.945.05 5.358.049.006 5.406.006 11.987s5.358 11.94 11.94 11.94a11.89 11.89 0 0 0 7.828-2.931l6.804 6.804a.844.844 0 0 0 .59.249.84.84 0 0 0 .59-1.428zM1.676 11.988c0-5.662 4.607-10.262 10.263-10.262C17.6 1.725 22.2 6.332 22.2 11.987c0 5.656-4.6 10.27-10.262 10.27-5.656 0-10.263-4.608-10.263-10.27z" fill="#000"/></svg>