<svg width="28" height="29" viewBox="0 0 28 29" fill="none" xmlns="http://www.w3.org/2000/svg">
<path d="M27.758 26.6207L20.9536 19.8162C22.7789 17.7178 23.884 14.9799 23.884 11.9874C23.884 5.40028 18.5261 0.0486145 11.9452 0.0486145C5.35801 0.0486145 0.00634766 5.40649 0.00634766 11.9874C0.00634766 18.5683 5.36422 23.9262 11.9452 23.9262C14.9376 23.9262 17.6755 22.8211 19.774 20.9958L26.5784 27.8003C26.7398 27.9617 26.9571 28.0486 27.1682 28.0486C27.3793 28.0486 27.5966 27.9679 27.758 27.8003C28.0808 27.4774 28.0808 26.9435 27.758 26.6207ZM1.67641 11.9874C1.67641 6.32533 6.28307 1.72489 11.9389 1.72489C17.601 1.72489 22.2015 6.33154 22.2015 11.9874C22.2015 17.6433 17.601 22.2562 11.9389 22.2562C6.28307 22.2562 1.67641 17.6495 1.67641 11.9874Z" fill="black"/>
</svg>
