<svg width="27" height="26" viewBox="0 0 27 26" fill="none" xmlns="http://www.w3.org/2000/svg"><path fill-rule="evenodd" clip-rule="evenodd" d="M26.102 7.191h-2.119l-1.11 15.501a2.59 2.59 0 0 1-2.584 2.584H7.371a2.592 2.592 0 0 1-2.584-2.584l-1.11-15.5H2.204a1.515 1.515 0 0 1-1.292-.647V5.254c.294-.42.78-.663 1.292-.646h5.167V3.316A2.583 2.583 0 0 1 9.954.732h7.751a2.573 2.573 0 0 1 2.584 2.584v1.292h5.813c.356 0 .645.289.645.646v1.291a.646.646 0 0 1-.645.646zm-9.688-3.875h-5.167c-.714 0-1.292.578-1.292 1.292h7.751c0-.714-.579-1.292-1.292-1.292zM6.08 7.191h15.5l-1.292 14.21a1.29 1.29 0 0 1-1.29 1.291H8.662a1.292 1.292 0 0 1-1.292-1.291L6.08 7.19zm10.98 11.626h-1.291a.646.646 0 0 1-.646-.646v-6.458c0-.357.29-.646.646-.646h1.292c.356 0 .646.289.646.646v6.458c0 .357-.29.646-.646.646zm-7.104-.646c0 .357.29.646.646.646h1.292a.646.646 0 0 0 .646-.646v-6.458a.647.647 0 0 0-.646-.646H10.6a.646.646 0 0 0-.646.646v6.458z" fill="#000"/></svg>